#!OML:ASF F:\VICON\USERDATA\INSTALL\rory3\rory3.ASF
:FULLY-SPECIFIED
:DEGREES
37
root 0.12418688443517809 18.564963870348084 14.672506324727925 4.630491955213597 -2.5127962066722183 0.7515207311113472
lfemur 16.663392588553904 -5.789782423628887 -28.247588969672154
ltibia 43.816854261662094
lfoot 24.012044671783887 -17.057944089284824
ltoes -7.828901771456509
rfemur -40.19319033568745 -0.20157740608200303 26.29763691211152
rtibia 25.80285325147888
rfoot 6.129654384928382 -1.8103127265988368
rtoes -14.491171260974664
lowerback 14.392897056022129 -1.7730902841930916 -2.129400801162584
upperback -1.4198430531950241 -2.603879718836051 1.9637301445261677
thorax -9.335075206926842 -1.0343431757110237 4.521559748801679
lowerneck -21.54254002495326 -2.0954947597403124 -2.2989962563385236
upperneck 13.69533347890143 -2.5248880366449016 1.9521004311090229
head 7.747920908259631 -1.1033271137068086 0.6272482756962036
lclavicle -1.5839070889337703e-15 1.8887480267800687e-15
lhumerus -36.13123282052348 -21.15693532486833 94.61505758487344
lradius 116.20698425840988
lwrist 33.888676353768425
lhand -24.601798043562372 0.4476524078879436
lfingers 7.12502
lthumb 1.8962130410412263 30.4210597966356
rclavicle -1.5839070889337703e-15 1.8887480267800687e-15
rhumerus -66.06179781271729 -1.1607760127948517 -93.44837164459355
rradius 112.20208291288006
rwrist -8.298104409662319
rhand -16.045070181225707 40.59956658458503
rfingers 7.12502
rthumb 10.155967406384606 10.613897855636212
38
root 0.12671201801354579 18.383087809345277 15.706121441815093 3.87705976510939 -2.78849946515363 0.7615763530662876
lfemur 15.119542496370235 -4.777287157730799 -27.622631180220168
ltibia 50.726621206327636
lfoot 22.707836557165837 -16.92067989721664
ltoes -5.578903634350545
rfemur -39.059053724204475 -0.4840898642585387 26.878844116197012
rtibia 28.26306987152997
rfoot 5.502919864215057 -0.7525735303329117
rtoes -9.103698958580267
lowerback 14.757702574898556 -1.5675999335639954 -2.0291915002407688
upperback -1.1221712607958758 -2.3255563452076764 1.9106150074100474
thorax -9.344600983477413 -0.9110843413366169 4.372029185222883
lowerneck -21.221077470807618 -2.199569402394954 -2.399720938896146
upperneck 13.552914244389468 -2.6212130332661228 1.870096051263604
head 7.671702013556285 -1.170384355570723 0.6018463874278367
lclavicle -1.4722659019763219e-15 1.9697250465530934e-15
lhumerus -36.897124302607565 -20.4792912977802 94.94912521735938
lradius 112.84215033053522
lwrist 33.819839529545796
lhand -25.228637719072644 -0.11032443728253694
lfingers 7.12502
lthumb 1.290839881201814 29.864409095100445
rclavicle -1.4722659019763219e-15 1.9697250465530934e-15
rhumerus -64.9303882331845 -1.447748354826139 -93.49649995885645
rradius 111.44784912811546
rwrist -8.056743029507935
rhand -16.2999864166341 40.56579042987326
rfingers 7.12502
rthumb 9.910057363792296 10.638440466376386
39
root 0.09284944492878291 18.153538823603345 15.709437991503378 3.2079565337000666 -3.317140565267048 0.40536879002675885
lfemur 12.33156162843139 -3.833274169480086 -26.365593632449524
ltibia 57.04338988265191
lfoot 21.07983346445826 -16.37632179274395
ltoes -4.308431704756728
rfemur -38.41640912220289 -0.5610254371626104 27.59205627270207
rtibia 31.419483048749132
rfoot 3.2246688443712728 0.18909514083965373
rtoes -2.24542501571772
lowerback 15.1330534762395 -1.31506226101483 -1.786231725750534
upperback -0.8804349346624394 -1.9476508377199022 1.9576269697827728
thorax -9.425423659592262 -0.7458664436245678 4.060376872223302
lowerneck -21.012629143404048 -2.262038372263923 -2.444083890465522
upperneck 13.418243717306495 -2.6982883408296017 1.7317249836441106
head 7.599570468991777 -1.2179149357064678 0.5479658665460571
lclavicle -2.1069392092171293e-15 1.5093756426685668e-15
lhumerus -38.23584833365457 -19.84559998002683 95.4212135923585
lradius 109.20722199099251
lwrist 33.89432787600577
lhand -25.747132061117444 -0.6759008220447591
lfingers 7.12502
lthumb 0.7900980491655614 29.29959123627237
rclavicle -2.1069392092171293e-15 1.5093756426685668e-15
rhumerus -63.69341181797872 -1.2841956815566338 -93.92468286254385
rradius 110.35622542666674
rwrist -7.9999313369705
rhand -16.62671444891712 40.49116126294447
rfingers 7.12502
rthumb 9.594818412968651 10.58241377405937
40
root 0.07903540278687762 17.931174480164255 17.500949422262508 2.703147249306114 -3.7730945766635267 -0.15591732922484702
lfemur 9.707823271945356 -2.1945985121743457 -23.900577157650922
ltibia 65.35947508300981
lfoot 19.677653138854225 -14.918372480589934
ltoes -2.991626455019958
rfemur -36.001030271187346 0.10668316389459331 28.946879301750982
rtibia 36.89004345782574
rfoot 1.155141117716111 0.5938622666760738
rtoes 5.598317408862847
lowerback 15.598717608056948 -0.9177095223701153 -1.0079212982086052
upperback -0.6499625633193473 -1.2663281854121164 2.189536571512798
thorax -9.516720723052595 -0.46042476639221197 3.7735390497104824
lowerneck -20.86031959904077 -2.2687023440069334 -2.391940929516833
upperneck 13.463638219052381 -2.6790133444156963 1.5651609339514407
head 7.590166941245001 -1.2317182272585008 0.4741047387632906
lclavicle -1.266461892748912e-15 2.1190014452589705e-15
lhumerus -39.45048759475145 -18.67953281495924 96.10386920196073
lradius 105.8046034693718
lwrist 33.78710508355333
lhand -26.057594846512067 -0.7354736234054842
lfingers 7.12502
lthumb 0.4902644123061499 29.239910091811325
rclavicle -1.266461892748912e-15 2.1190014452589705e-15
rhumerus -61.203513768354966 -0.4907726616161572 -94.15848623308021
rradius 109.31024549228547
rwrist -7.9511464280391575
rhand -16.866265009418957 40.51005671211762
rfingers 7.12502
rthumb 9.363725479624666 10.592129823335293
41
root 0.05598305156905217 17.690368499221346 17.907684838415637 2.40170945198968 -4.324797543112152 -1.1203978468667244
lfemur 5.96274661024478 -0.05699173857280532 -21.010079891000046
ltibia 73.40357421435745
lfoot 17.65056125052858 -13.52776499619278
ltoes -2.4349775311608184
rfemur -35.073407533452404 1.2011692575649047 30.356343229332214
rtibia 42.29097329819288
rfoot -2.537019403326296 -0.7411427297275717
rtoes 10.927351116322608
lowerback 16.006222384239443 -0.5938853942679188 -0.17590999852042155
upperback -0.4848689613963588 -0.6395503613793947 2.529845677240134
thorax -9.659192568401163 -0.20205926503206606 3.388050698610186
lowerneck -20.870941473852895 -2.208596828980517 -2.263538820057386
upperneck 13.57709847803808 -2.5770769198340515 1.3514931809074169
head 7.61062892015462 -1.2066386210042668 0.37497546232856205
lclavicle -1.3792701808270613e-15 2.0371778816035993e-15
lhumerus -40.85521047852077 -17.488379400617685 96.77399659478255
lradius 102.12493423871011
lwrist 33.5639869634805
lhand -26.16348250514758 -0.4501000226260803
lfingers 7.12502
lthumb 0.3879917398389987 29.526049221880047
rclavicle -1.3792701808270613e-15 2.0371778816035993e-15
rhumerus -59.055032901658855 0.6477776039145091 -94.5013367923087
rradius 107.94938413959656
rwrist -8.083258553869197
rhand -17.067392836821192 40.28765099661479
rfingers 7.12502
rthumb 9.16966443191324 10.322059267783896
42
root 0.01785931034426741 17.445265470522276 18.101676253923635 2.2289835057850995 -4.6986006300806045 -2.274268912462879
lfemur 0.8953142235295886 2.0558283302941627 -17.697442044095105
ltibia 81.47220097384697
lfoot 15.280218500771321 -11.855528088086162
ltoes -1.733610586734379
rfemur -33.31672553205769 2.524049698951889 31.893912992211884
rtibia 47.66344155194479
rfoot -6.824479175501503 -3.752199713947827
rtoes 13.845066710544703
lowerback 16.455800114498242 -0.26707991001895826 0.7579013119429887
upperback -0.3444137167780682 0.022750805733072088 2.9337321633880435
thorax -9.84025793334789 0.06894628866518437 2.977390879025533
lowerneck -21.083257923592566 -2.159260648566969 -2.0490515561255127
upperneck 13.591351338450282 -2.5157669872574107 1.1667101657951264
head 7.6293063556134335 -1.1899506879413089 0.2731209425336794
lclavicle -1.5197775980762395e-15 1.935263231549701e-15
lhumerus -42.50203905723789 -16.46274154882323 97.46503887829795
lradius 98.98232759770137
lwrist 33.22599112339183
lhand -26.081970209721142 0.2966608250921685
lfingers 7.12502
lthumb 0.46670070820558474 30.274603634433902
rclavicle -1.5197775980762395e-15 1.935263231549701e-15
rhumerus -56.384728787283365 2.1593718316664585 -94.92925309753674
rradius 106.57971904880142
rwrist -8.457268087892556
rhand -17.290955176240928 40.017395519795144
rfingers 7.12502
rthumb 8.9540156529362 10.015149525845024
43
root -0.03662650716631208 17.221570347481677 18.26957593236624 2.2368634919910027 -4.790207319750974 -3.448832230058638
lfemur -5.356120375288077 3.993405886142574 -14.51841459784016
ltibia 89.01198537097528
lfoot 12.276505191333182 -10.094309152320866
ltoes -1.4073007927028591
rfemur -31.034301827154728 3.7546044102719853 33.38467777046574
rtibia 52.638254348816034
rfoot -11.22212648864794 -7.8657143299673
rtoes 13.79171899737553
lowerback 16.881022284274074 0.02980112633132803 1.6708540778345848
upperback -0.20306144695584105 0.6457525380542279 3.3303917952873086
thorax -10.009492405988356 0.3221957980983756 2.5717133975313096
lowerneck -21.397590596671733 -2.1696348337838556 -1.8209178202874579
upperneck 13.474547860411034 -2.5599734804275243 1.0839234990306246
head 7.626986602629802 -1.208823063632721 0.19860702497976757
lclavicle -1.7111817415542313e-15 1.7964315143151544e-15
lhumerus -44.312675037923654 -15.591977771073964 98.1729594558084
lradius 96.48664097564996
lwrist 32.866786167799766
lhand -25.87388004602581 1.2903627908636384
lfingers 7.12502
lthumb 0.6676532653146496 31.27003987966723
rclavicle -1.7111817415542313e-15 1.7964315143151544e-15
rhumerus -53.389124496611814 3.9675504698654898 -95.35300137469125
rradius 105.58717701141173
rwrist -8.882184167784477
rhand -17.458830167753344 39.73611429686438
rfingers 7.12502
rthumb 8.792084992149954 9.698364839261858
